PathFileType	4	(X/Y/Z)	Patient4_TMGait_0pt7_01_right_05.trc.trc
DataRate	CameraRate	NumFrames	NumMarkers	Units	OrigDataRate	OrigDataStartFrame	OrigNumFrames
89.171974522293	89.171974522293	4	33	mm	89.171974522293	71	       141
Frame#	Time	Sacral			L.Shoulder			Chest			R.Shoulder			Neck			R.ASIS			L.ASIS			R.Thigh.Superior			R.Thigh.Lateral			R.Thigh.Inferior			R.Patella			L.Thigh.Superior			L.Thigh.Lateral			L.Thigh.Inferior			L.Patella			L.Shank.Superior			L.Shank.Lateral			L.Shank.Inferior			R.Shank.Superior			R.Shank.Lateral			R.Shank.Inferior			R.Heel			R.Midfoot.Superior			R.Midfoot.Lateral			R.Toe			L.Heel			L.Midfoot.Lateral			L.Midfoot.Superior			L.Toe			L.Elbow			L.Wrist			R.Elbow			R.Wrist			
		X1	Y1	Z1	X2	Y2	Z2	X3	Y3	Z3	X4	Y4	Z4	X5	Y5	Z5	X6	Y6	Z6	X7	Y7	Z7	X8	Y8	Z8	X9	Y9	Z9	X10	Y10	Z10	X11	Y11	Z11	X12	Y12	Z12	X13	Y13	Z13	X14	Y14	Z14	X15	Y15	Z15	X16	Y16	Z16	X17	Y17	Z17	X18	Y18	Z18	X19	Y19	Z19	X20	Y20	Z20	X21	Y21	Z21	X22	Y22	Z22	X23	Y23	Z23	X24	Y24	Z24	X25	Y25	Z25	X26	Y26	Z26	X27	Y27	Z27	X28	Y28	Z28	X29	Y29	Z29	X30	Y30	Z30	X31	Y31	Z31	X32	Y32	Z32	X33	Y33	Z33	

71	6.025000000000	728.376534111452	1002.719352166369	543.008071899832	888.326092717477	1427.323540061876	347.591091172639	1009.156174293907	1354.237183738221	495.220657596809	947.347245174608	1433.536896533200	675.415035504177	908.674172417238	1487.203016002693	503.516147477832	958.972732525367	935.438907731830	643.998316606590	928.346031614651	951.554435312310	369.513218818615	953.006248834002	721.930347892687	617.197346227964	847.639166673114	630.024079109294	680.881513836792	903.955987153168	563.491611748514	598.956187394929	882.315081867435	478.439180242765	602.725537452350	1007.816169574869	774.815801550436	402.682095257621	963.920880756265	645.446375233653	323.632631488434	1066.960017415662	589.048584885520	386.045409897671	1095.901928040831	524.883662340145	381.572022092640	1081.603906203682	451.464232706223	371.049892978997	1019.088442592158	319.030889420499	323.074142238509	1110.377611551864	223.802781818024	377.708992296913	842.505739847629	395.243779462264	610.656005272343	758.325276346602	303.105878282417	674.777942358711	782.212226421064	203.553313342251	609.040225239085	627.492483084077	48.472486536877	580.551251684081	800.895069436924	97.186248661515	614.610075815129	711.011098325225	38.654774826971	654.029956290553	919.380204716338	38.996881278464	642.047730402175	1034.643691349790	43.000109649727	419.744198935420	1107.104523727582	48.570498524049	338.528561491656	1175.516235092301	128.170545981463	357.131090077064	1309.817171386629	101.319474655738	330.421552816179	726.652393344241	1116.010520444840	257.506250887104	667.505644127541	863.169249622539	276.484171801104	1131.940018937293	1158.344712275549	776.950315652133	1315.343490212040	1287.697282230962	666.092332847412	
72	6.036214285714	729.826713697587	1001.294676999396	539.883852394400	888.177402734163	1426.415499198183	345.450201398624	1008.991120698351	1353.735239488758	493.258386068553	946.278329878306	1432.505470286450	673.367872813589	907.962406648693	1486.093970063343	501.535574343390	959.914616601475	934.408660992987	642.282244150553	930.745818692901	949.735745898195	367.462295149610	952.557483290072	720.510662319281	616.527153122624	845.808960729532	629.516757757807	679.774482358205	902.179768255775	562.149076986956	598.556604011597	879.583334912525	476.955621754592	602.159042993659	1009.754288281823	772.367113529675	400.396596124880	962.758005913810	641.899486691681	324.149565165746	1066.998702162505	585.930219663188	384.808151876671	1094.419159542460	520.885739987456	381.816784352890	1079.575180836498	447.305425873982	371.828663879169	1015.075210231556	315.307778391344	325.523608064817	1105.631268620800	219.478570841273	380.102222332276	838.749535925061	394.241525606404	610.188167910783	753.222700887492	303.345103608472	674.483248980862	775.900831008739	203.306566652902	609.055828082232	619.671726426820	49.210910008981	580.833689875987	793.316578857258	97.304672481122	614.824152911688	703.216531680651	38.932446320810	654.235134706808	911.586584281955	38.823383855266	642.163890297668	1027.397413668959	41.118788625361	423.677467157012	1098.789152270839	45.443730675824	341.320775103546	1169.434167505956	122.725873311318	359.573941602479	1302.728039181736	92.554782160015	330.634628849619	724.159805668602	1116.961924910737	255.768201917952	664.750092077299	864.070638697070	276.555222513379	1133.369960741170	1159.800727392156	775.410347723638	1311.915301331650	1294.306281174228	663.555071827236	
73	6.047428571429	731.260781254678	999.857333926952	536.627073447960	888.156795270424	1425.424343732135	343.099675431771	1008.883468033150	1353.214287334921	491.187860697182	945.142631244607	1431.477031123242	671.189868961566	907.293551575440	1484.986953494275	499.325879681570	960.888860616612	933.308614958001	640.525513416504	933.269801714769	947.975358799659	365.388514296991	952.375317293424	719.062175194027	615.845892037606	844.293186435696	628.908681714468	678.522742867496	900.859409530590	560.737153635557	598.058781378529	877.365758711780	475.263972912916	601.493064514757	1011.777449802391	769.881221261483	398.091236875986	961.813735958963	638.587029379227	324.504218937406	1067.108240791429	582.921022744562	383.724584749244	1092.898518204180	516.955390363087	382.236111435805	1077.489525256291	443.241888727570	372.630420174180	1011.049426020523	311.830559408493	327.539282927860	1100.507045410861	215.219373840335	382.316624284815	835.381318756166	393.114362156567	609.598609119371	748.398941446162	303.578433294169	674.042266549241	769.748309895059	203.039301795809	609.010094260022	611.849266972036	50.073902724179	581.157182189272	785.780836538544	97.431281424112	615.020358930458	695.436959134316	39.262884061009	654.464127200345	903.815384691160	38.674717981600	642.284504547347	1019.242098327429	39.491805128552	426.860187611756	1089.858911135855	42.575237506459	343.635387893331	1162.794799302728	117.291373875102	361.965814495673	1295.106119821904	83.560744675720	331.243385887981	722.401873219903	1117.415741131697	253.877306753126	662.932256765362	864.469711519214	276.333177128208	1134.060401865230	1160.680191680247	774.114315047987	1308.216060294141	1299.622491142697	661.391452670409	
74	6.058642857143	732.648887854637	998.462550037265	533.301007622611	888.289866804920	1424.383414582238	340.541482945704	1008.847665925631	1352.704155255764	489.019312457193	943.979682006690	1430.519889274681	668.879779499952	906.706720297592	1483.939771915990	496.876736894131	961.866547774398	932.180695931578	638.723211084627	935.846157557973	946.371556958975	363.319585206921	952.475207042834	717.635432097263	615.081259465241	843.180287130132	628.201954850976	677.095443742850	900.076858090454	559.290053260535	597.397298444312	875.785727883099	473.356438405226	600.708186922272	1013.830939979129	767.488180079344	395.876575735034	961.241540733634	635.721050594390	324.571962219429	1067.300580032182	580.182179255043	382.820102142917	1091.422032828310	513.313864680247	382.738561381940	1075.472898148521	439.492748742273	373.345311822898	1007.260017002914	308.777534804599	328.960352502313	1095.289027070764	211.273932384842	384.219304198125	832.478866740909	391.874041826565	608.866014680560	743.920935889495	303.847742384108	673.438655507000	763.808464974995	202.790776973073	608.890321205219	604.042541017953	51.152520883572	581.516175336065	778.325254418944	97.568071155971	615.191791966938	687.682735551201	39.697587221271	654.708560886221	896.064121384492	38.547359892207	642.399437240973	1010.635876180414	38.209515665623	429.231450134703	1080.765168571191	40.119257132362	345.409085061961	1155.900854717067	112.206901004870	364.160450358014	1287.295996735854	74.930115939063	332.135210957722	721.458379970738	1117.338161979001	251.811246574375	662.083457900699	864.339630213510	275.771579661427	1133.972907503737	1160.944251058081	773.044398519051	1304.299855518321	1303.633125936752	659.595904621744	
